<svg width="88" height="18" viewBox="0 0 88 18" fill="none" xmlns="http://www.w3.org/2000/svg">
<line x1="3.55533" y1="8.87234" x2="81.2078" y2="8.87235" stroke="#CCCCCC" stroke-width="0.74754" stroke-dasharray="2.24 2.24"/>
<g clip-path="url(#clip0_1038_1229)">
<path d="M42.9847 16.3101H41.9608C41.8579 16.3101 41.7567 16.2865 41.6664 16.2414C41.576 16.1964 41.4995 16.1314 41.4438 16.0524C41.388 15.9734 41.3548 15.8829 41.3472 15.7891C41.3397 15.6953 41.3579 15.6013 41.4004 15.5157L43.8798 10.5154L40.1568 10.4399L38.799 11.9433C38.5401 12.2407 38.3336 12.3732 37.8066 12.3732H37.1173C37.0082 12.3764 36.8998 12.3555 36.8014 12.3123C36.703 12.2691 36.6174 12.2049 36.5519 12.125C36.4604 12.0122 36.3704 11.821 36.4581 11.5482L37.2204 9.05245C37.2262 9.03382 37.2331 9.01519 37.2408 8.99691C37.2412 8.99517 37.2412 8.99338 37.2408 8.99164C37.2329 8.97338 37.2261 8.95472 37.2204 8.93575L36.4573 6.42421C36.3746 6.15671 36.465 5.9697 36.5558 5.85968C36.6167 5.78576 36.6958 5.72595 36.7867 5.68505C36.8775 5.64414 36.9776 5.62329 37.0789 5.62417H37.8066C38.2001 5.62417 38.5821 5.78551 38.8067 6.04598L40.1364 7.52408L43.8798 7.47347L41.4011 2.48201C41.3586 2.3964 41.3403 2.30242 41.3478 2.20867C41.3553 2.11491 41.3884 2.02436 41.4441 1.94531C41.4997 1.86626 41.5762 1.80122 41.6665 1.75614C41.7567 1.71105 41.8579 1.68737 41.9608 1.68725H42.9959C43.1403 1.6899 43.2822 1.72225 43.411 1.78188C43.5399 1.84152 43.6524 1.92691 43.7402 2.03173L48.5502 7.37469L50.7723 7.32126C50.935 7.31318 51.3858 7.31036 51.49 7.31036C53.6156 7.31142 54.8849 7.94203 54.8849 8.99867C54.8849 9.3312 54.7395 9.94775 53.7667 10.34C53.1925 10.572 52.4262 10.6894 51.4893 10.6894C51.3862 10.6894 50.9365 10.6866 50.7715 10.6785L48.5498 10.6244L43.7279 15.9674C43.64 16.0717 43.5276 16.1567 43.399 16.216C43.2704 16.2753 43.1288 16.3075 42.9847 16.3101Z" fill="#1262AE"/>
</g>
<circle cx="3.74945" cy="9.2473" r="3.00191" fill="white" stroke="#1262AE" stroke-width="1.49508"/>
<circle cx="84.2505" cy="8.93458" r="3.00191" fill="white" stroke="#1262AE" stroke-width="1.49508"/>
<defs>
<clipPath id="clip0_1038_1229">
<rect width="19.6322" height="17.941" fill="white" transform="translate(35.8065) scale(1.00314)"/>
</clipPath>
</defs>
</svg>
