<svg width="21" height="24" viewBox="0 0 21 24" fill="none" xmlns="http://www.w3.org/2000/svg">
<path d="M0 17.6842C0 18.7958 0.497272 19.7937 1.27506 20.4884V22.1053C1.27506 23.1537 2.12934 24 3.18764 24C4.24594 24 5.10023 23.1537 5.10023 22.1053V21.4737H15.3007V22.1053C15.3007 23.1411 16.155 24 17.2133 24C18.2588 24 19.1258 23.1537 19.1258 22.1053V20.4884C19.9036 19.7937 20.4009 18.7958 20.4009 17.6842V5.05263C20.4009 0.631579 15.8362 0 10.2005 0C4.5647 0 0 0.631579 0 5.05263V17.6842ZM4.4627 18.9474C3.4044 18.9474 2.55011 18.1011 2.55011 17.0526C2.55011 16.0042 3.4044 15.1579 4.4627 15.1579C5.521 15.1579 6.37528 16.0042 6.37528 17.0526C6.37528 18.1011 5.521 18.9474 4.4627 18.9474ZM15.9382 18.9474C14.8799 18.9474 14.0256 18.1011 14.0256 17.0526C14.0256 16.0042 14.8799 15.1579 15.9382 15.1579C16.9965 15.1579 17.8508 16.0042 17.8508 17.0526C17.8508 18.1011 16.9965 18.9474 15.9382 18.9474ZM17.8508 11.3684H2.55011V5.05263H17.8508V11.3684Z" fill="white"/>
</svg>
