<svg width="22" height="20" viewBox="0 0 22 20" fill="none" xmlns="http://www.w3.org/2000/svg">
<path d="M19.1152 3.34445C18.8751 2.68889 18.2027 2.22222 17.4102 2.22222H14.4085V1.11111C14.4085 0.5 13.8681 0 13.2078 0H8.40494C7.74455 0 7.20423 0.5 7.20423 1.11111V2.22222H4.20247C3.41 2.22222 2.74962 2.68889 2.49747 3.34445L0.132077 9.64445C0.0480281 9.87778 0 10.1222 0 10.3778V18.3333C0 19.2556 0.804473 20 1.80106 20C2.79764 20 3.60212 19.2556 3.60212 18.3333V17.7778H18.0106V18.3333C18.0106 19.2445 18.8151 20 19.8116 20C20.7962 20 21.6127 19.2556 21.6127 18.3333V10.3778C21.6127 10.1333 21.5647 9.87778 21.4806 9.64445L19.1152 3.34445ZM4.20247 14.4444C3.20588 14.4444 2.40141 13.7 2.40141 12.7778C2.40141 11.8556 3.20588 11.1111 4.20247 11.1111C5.19905 11.1111 6.00353 11.8556 6.00353 12.7778C6.00353 13.7 5.19905 14.4444 4.20247 14.4444ZM17.4102 14.4444C16.4136 14.4444 15.6092 13.7 15.6092 12.7778C15.6092 11.8556 16.4136 11.1111 17.4102 11.1111C18.4068 11.1111 19.2113 11.8556 19.2113 12.7778C19.2113 13.7 18.4068 14.4444 17.4102 14.4444ZM2.40141 8.88889L4.20247 3.88889H17.4102L19.2113 8.88889H2.40141Z" fill="white"/>
</svg>
