<svg width="24" height="21" viewBox="0 0 24 21" fill="none" xmlns="http://www.w3.org/2000/svg">
<path d="M11.143 6.79313H12.8574V5.94399C12.8574 5.71878 12.9477 5.5028 13.1084 5.34356C13.2692 5.18431 13.4872 5.09485 13.7146 5.09485H16.2861C16.5134 5.09485 16.7315 5.18431 16.8922 5.34356C17.053 5.5028 17.1433 5.71878 17.1433 5.94399V6.79313H20.572V3.39657C20.572 2.49574 20.2107 1.63181 19.5677 0.994831C18.9247 0.357851 18.0526 0 17.1433 0H6.85713C5.94777 0 5.07567 0.357851 4.43266 0.994831C3.78965 1.63181 3.42841 2.49574 3.42841 3.39657V6.79313H6.85713V5.94399C6.85713 5.71878 6.94744 5.5028 7.10819 5.34356C7.26894 5.18431 7.48697 5.09485 7.7143 5.09485H10.2858C10.5132 5.09485 10.7312 5.18431 10.892 5.34356C11.0527 5.5028 11.143 5.71878 11.143 5.94399V6.79313Z" fill="white"/>
<path d="M4.28571 8.49145C3.14907 8.49145 2.05898 8.93876 1.25526 9.73499C0.451529 10.5312 0 11.6111 0 12.7372V19.5303C0 19.7555 0.0903058 19.9715 0.251051 20.1307C0.411797 20.29 0.629814 20.3794 0.857142 20.3794C1.08447 20.3794 1.30249 20.29 1.46323 20.1307C1.62398 19.9715 1.71428 19.7555 1.71428 19.5303V15.2846H22.2857V19.5303C22.2857 19.7555 22.376 19.9715 22.5368 20.1307C22.6975 20.29 22.9155 20.3794 23.1428 20.3794C23.3702 20.3794 23.5882 20.29 23.7489 20.1307C23.9097 19.9715 24 19.7555 24 19.5303V12.7372C24 11.6111 23.5485 10.5312 22.7447 9.73499C21.941 8.93876 20.8509 8.49145 19.7143 8.49145H4.28571Z" fill="white"/>
</svg>
