<svg width="18" height="18" viewBox="0 0 18 18" fill="none" xmlns="http://www.w3.org/2000/svg">
<g clip-path="url(#clip0_1038_1176)">
<path d="M16.2549 13.9148C15.7727 13.485 15.3506 12.9922 14.9999 12.4498C14.617 11.7011 14.3875 10.8834 14.3249 10.0448V7.57481C14.3282 6.25762 13.8504 4.98455 12.9813 3.9948C12.1121 3.00505 10.9115 2.36674 9.6049 2.19981V1.55481C9.6049 1.37778 9.53457 1.208 9.40939 1.08282C9.28421 0.957636 9.11443 0.88731 8.9374 0.88731C8.76037 0.88731 8.59059 0.957636 8.46541 1.08282C8.34023 1.208 8.2699 1.37778 8.2699 1.55481V2.20981C6.97503 2.38877 5.78889 3.03094 4.93116 4.01736C4.07344 5.00379 3.60227 6.26763 3.6049 7.57481V10.0448C3.54228 10.8834 3.31279 11.7011 2.9299 12.4498C2.58534 12.991 2.17 13.4837 1.6949 13.9148C1.64157 13.9617 1.59882 14.0193 1.56951 14.084C1.5402 14.1487 1.52499 14.2188 1.5249 14.2898V14.9698C1.5249 15.1024 1.57758 15.2296 1.67135 15.3234C1.76511 15.4171 1.89229 15.4698 2.0249 15.4698H15.9249C16.0575 15.4698 16.1847 15.4171 16.2785 15.3234C16.3722 15.2296 16.4249 15.1024 16.4249 14.9698V14.2898C16.4248 14.2188 16.4096 14.1487 16.3803 14.084C16.351 14.0193 16.3082 13.9617 16.2549 13.9148ZM2.5649 14.4698C3.0301 14.0204 3.4397 13.5168 3.7849 12.9698C4.26721 12.0655 4.54862 11.0678 4.6099 10.0448V7.57481C4.59007 6.98883 4.68836 6.40485 4.89892 5.85764C5.10948 5.31044 5.42801 4.8112 5.83552 4.38966C6.24304 3.96812 6.73122 3.63289 7.27099 3.40395C7.81076 3.175 8.39108 3.05701 8.9774 3.05701C9.56372 3.05701 10.144 3.175 10.6838 3.40395C11.2236 3.63289 11.7118 3.96812 12.1193 4.38966C12.5268 4.8112 12.8453 5.31044 13.0559 5.85764C13.2664 6.40485 13.3647 6.98883 13.3449 7.57481V10.0448C13.4062 11.0678 13.6876 12.0655 14.1699 12.9698C14.5151 13.5168 14.9247 14.0204 15.3899 14.4698H2.5649Z" fill="#424242"/>
<path d="M9.00003 17.1101C9.315 17.1029 9.61726 16.9845 9.85333 16.7758C10.0894 16.5672 10.2441 16.2818 10.29 15.9701H7.66003C7.70727 16.2903 7.86919 16.5824 8.11568 16.7921C8.36217 17.0018 8.67645 17.1148 9.00003 17.1101Z" fill="#424242"/>
<circle cx="13.8424" cy="4.07777" r="2.62377" fill="#F99A0E" stroke="white" stroke-width="0.74754"/>
</g>
<defs>
<clipPath id="clip0_1038_1176">
<rect width="17.941" height="17.941" fill="white" transform="scale(1.00329)"/>
</clipPath>
</defs>
</svg>
