<svg width="13" height="13" viewBox="0 0 13 13" fill="none" xmlns="http://www.w3.org/2000/svg">
<path d="M12.1808 4.57768L8.40724 3.98458L6.72038 0.286111C6.67431 0.184849 6.59851 0.102875 6.50488 0.0530478C6.27005 -0.0723239 5.9847 0.0321526 5.86729 0.286111L4.18042 3.98458L0.406905 4.57768C0.302869 4.59376 0.207751 4.6468 0.134926 4.72716C0.0468845 4.82503 -0.00163025 4.95669 4.18311e-05 5.09322C0.00171391 5.22975 0.053436 5.35998 0.143843 5.45528L2.87404 8.33401L2.22901 12.3989C2.21389 12.4935 2.22356 12.5908 2.25694 12.6797C2.29032 12.7686 2.34607 12.8456 2.41787 12.902C2.48966 12.9584 2.57463 12.9919 2.66314 12.9987C2.75165 13.0056 2.84015 12.9854 2.91862 12.9406L6.29383 11.0215L9.66905 12.9406C9.76119 12.9937 9.8682 13.0113 9.97075 12.9921C10.2294 12.9438 10.4032 12.6786 10.3587 12.3989L9.71363 8.33401L12.4438 5.45528C12.5181 5.37653 12.5672 5.27366 12.582 5.16114C12.6222 4.87986 12.4409 4.61947 12.1808 4.57768Z" fill="#FDBF00"/>
</svg>
