<svg width="24" height="24" viewBox="0 0 24 24" fill="none" xmlns="http://www.w3.org/2000/svg">
<path d="M16.2531 0.772876C15.7533 0.277996 15.0755 0 14.3688 0C13.6622 0 12.9844 0.277996 12.4846 0.772876L0.780751 12.3686C0.533222 12.6138 0.336872 12.9049 0.202911 13.2253C0.0689491 13.5457 0 13.8891 0 14.2359C0 14.5827 0.0689491 14.9261 0.202911 15.2465C0.336872 15.5669 0.533222 15.858 0.780751 16.1032L2.16924 17.4775C2.77344 18.0773 3.62288 17.9705 4.13587 17.6677C4.41884 17.5012 4.74972 17.4329 5.07626 17.4735C5.4028 17.514 5.70639 17.6612 5.93909 17.8918C6.1718 18.1223 6.32036 18.423 6.36132 18.7465C6.40228 19.07 6.33331 19.3978 6.16528 19.6781C5.86081 20.1863 5.75182 21.0279 6.35721 21.6264L7.74688 23.0019C7.9944 23.2472 8.28826 23.4417 8.61167 23.5744C8.93508 23.7071 9.28171 23.7754 9.63176 23.7754C9.98182 23.7754 10.3284 23.7071 10.6519 23.5744C10.9753 23.4417 11.2691 23.2472 11.5166 23.0019L23.2193 11.4086C23.4668 11.1633 23.6631 10.8722 23.7971 10.5518C23.9311 10.2315 24 9.88806 24 9.54127C24 9.19448 23.9311 8.85109 23.7971 8.5307C23.6631 8.21031 23.4668 7.9192 23.2193 7.67398L21.832 6.29846C21.2278 5.69989 20.3771 5.80552 19.8642 6.10832C19.5812 6.27478 19.2503 6.34311 18.9238 6.30253C18.5972 6.26196 18.2936 6.11478 18.0609 5.88424C17.8282 5.65371 17.6797 5.35295 17.6387 5.02946C17.5977 4.70597 17.6667 4.37818 17.8347 4.09785C18.1404 3.58965 18.2482 2.74814 17.6428 2.14958L16.2543 0.772876H16.2531Z" fill="white"/>
</svg>
