<svg width="17" height="24" viewBox="0 0 17 24" fill="none" xmlns="http://www.w3.org/2000/svg">
<path d="M16.9784 21.4018C16.9369 20.514 16.8819 19.6309 16.8379 18.7497C16.6955 15.9933 16.7072 13.1965 16.5583 10.4265C16.4093 7.67723 16.4977 4.92612 16.4191 2.17694C16.4032 1.60557 16.4288 0.477168 15.8375 0.151439C14.5657 -0.54828 13.8107 1.3603 13.4872 2.13732C12.9039 3.54771 12.5669 5.03109 12.1503 6.49227C11.7952 7.74299 11.3909 8.98966 11.2538 10.2846C11.1523 11.2563 11.1616 12.3441 11.6692 13.2196C11.9241 13.6596 12.3649 13.9591 12.8667 14.0857C13.3876 14.2189 13.9831 14.0445 14.4774 14.2797C14.6048 14.3412 14.717 14.4692 14.7682 14.5983C14.9284 15.0146 14.7768 15.6463 14.7267 16.0758C14.5681 17.4593 14.4003 18.8567 14.3252 20.2469C14.2808 21.0877 14.2317 22.1644 14.7403 22.8969C15.0521 23.3418 15.6838 23.7572 16.2539 23.5361C17.1059 23.2099 17.0139 22.1083 16.9784 21.4018Z" fill="white"/>
<path d="M6.13913 0.765159C5.89427 0.86332 5.98712 1.73875 5.97621 2.00773C5.96011 2.49097 5.99311 3.1304 5.93492 3.75669C5.93457 3.76228 5.93375 3.76617 5.93293 3.77005C5.92789 3.81357 5.9238 3.86052 5.91664 3.91009C5.909 3.95795 5.90089 4.00411 5.89503 4.05151C5.84283 4.35685 5.74347 4.71845 5.55565 4.89181C5.34241 5.09009 4.86458 5.04839 4.69864 4.8141C4.42713 4.43273 4.44751 3.58126 4.43102 3.55615C4.41998 3.15335 4.36128 1.93502 4.27325 1.13176C4.26595 1.07124 4.25425 0.707146 3.92184 0.668242C3.76682 0.651403 3.6037 0.783505 3.55084 1.02478C3.39471 1.73695 3.24851 3.09451 3.2393 3.30798C3.23743 3.32865 3.23651 3.35275 3.23642 3.37297C3.23642 3.37297 3.2356 3.37685 3.23607 3.37857C3.23506 3.42288 3.18227 4.48647 2.91311 4.8534C2.77244 5.04578 2.40723 5.19707 2.04429 4.99351C1.89974 4.91156 1.80067 4.75361 1.73084 4.58443C1.3513 3.40313 1.692 2.10176 1.74048 1.48166C1.75483 1.30724 1.91277 0.724926 1.56042 0.744406C1.02987 0.773228 0.344732 3.03368 0.222231 3.55176C-0.0781076 4.84086 -0.123643 6.2183 0.398774 7.46179C0.689015 8.15037 1.25665 8.71403 1.96056 8.98733C2.27165 9.107 2.61739 9.19386 2.98345 9.24426C2.85174 12.1748 2.7022 15.233 2.56601 16.9349C2.46127 18.2157 2.3376 19.5105 2.35424 20.7966C2.36407 21.565 2.35597 22.4812 2.86036 23.1254C3.38799 23.7986 4.50087 23.4889 4.80135 22.6935C5.1384 21.7969 5.04037 20.7521 4.9256 19.1059C4.81036 17.458 4.68064 15.2099 4.60916 14.0004C4.50453 12.2194 4.46802 10.6631 4.45797 9.24313C5.39511 9.10922 6.26917 8.7071 6.75834 7.96759C6.97297 7.64413 7.11425 7.28272 7.21077 6.91085C7.35879 6.34762 7.43096 5.73057 7.39898 5.14962C7.36646 4.6147 6.92686 0.449599 6.13913 0.765159Z" fill="white"/>
</svg>
