<svg width="18" height="18" viewBox="0 0 18 18" fill="none" xmlns="http://www.w3.org/2000/svg">
<path d="M8.99999 16.875C6.91141 16.875 4.90838 16.0453 3.43153 14.5685C1.95468 13.0916 1.125 11.0886 1.125 8.99999C1.125 6.91141 1.95468 4.90838 3.43153 3.43153C4.90838 1.95468 6.91141 1.125 8.99999 1.125C11.0886 1.125 13.0916 1.95468 14.5685 3.43153C16.0453 4.90838 16.875 6.91141 16.875 8.99999C16.875 11.0886 16.0453 13.0916 14.5685 14.5685C13.0916 16.0453 11.0886 16.875 8.99999 16.875ZM8.99999 18C11.3869 18 13.6761 17.0518 15.3639 15.3639C17.0518 13.6761 18 11.3869 18 8.99999C18 6.61305 17.0518 4.32386 15.3639 2.63604C13.6761 0.948211 11.3869 0 8.99999 0C6.61305 0 4.32386 0.948211 2.63604 2.63604C0.948211 4.32386 0 6.61305 0 8.99999C0 11.3869 0.948211 13.6761 2.63604 15.3639C4.32386 17.0518 6.61305 18 8.99999 18Z" fill="#1262AF"/>
<path d="M6.99091 5.1784C7.09704 5.12375 7.21619 5.09944 7.33524 5.10814C7.45429 5.11684 7.56864 5.15821 7.6657 5.22771L12.2075 8.47185C12.2916 8.53187 12.3602 8.61111 12.4075 8.70298C12.4548 8.79484 12.4794 8.89667 12.4794 9C12.4794 9.10333 12.4548 9.20516 12.4075 9.29702C12.3602 9.38889 12.2916 9.46813 12.2075 9.52815L7.6657 12.7723C7.56867 12.8417 7.45438 12.8831 7.33539 12.8918C7.2164 12.9005 7.09731 12.8762 6.99122 12.8216C6.88513 12.767 6.79615 12.6842 6.73405 12.5824C6.67195 12.4805 6.63915 12.3635 6.63925 12.2441V5.75586C6.63912 5.63658 6.67188 5.51958 6.73392 5.4177C6.79596 5.31583 6.88488 5.23303 6.99091 5.1784Z" fill="#1262AF"/>
</svg>
