<svg width="20" height="18" viewBox="0 0 20 18" fill="none" xmlns="http://www.w3.org/2000/svg">
<path d="M18 0H2C0.897 0 0 0.888633 0 1.98135V15.8508C0 16.9435 0.897 17.8321 2 17.8321H18C19.103 17.8321 20 16.9435 20 15.8508V1.98135C20 0.888633 19.103 0 18 0ZM18.001 5.94404C18 5.94404 18 5.94404 18.001 5.94404H17.536L14.869 1.98135H18L18.001 5.94404ZM13.5 11.8881L8 14.8601V8.91605L13.5 11.8881ZM12.536 5.94404L9.869 1.98135H12.465L15.132 5.94404H12.536ZM10.132 5.94404H7.536L4.869 1.98135H7.465L10.132 5.94404ZM2 1.98135H2.465L5.132 5.94404H2V1.98135Z" fill="white"/>
</svg>
